<svg preserveAspectRatio="none" width="100%" height="100%" overflow="visible" style="display: block;" viewBox="0 0 104.658 63.8219" fill="none" xmlns="http://www.w3.org/2000/svg">
<path id="Vector 45" d="M98.7606 63.7837C98.1793 63.4023 97.4688 62.6192 96.9447 61.9623C96.7815 61.7578 97.0474 61.6299 96.937 61.4761C96.7205 61.176 96.3728 61.0739 96.1693 60.7675C96.1012 60.664 96.4698 60.4156 96.3916 60.314C95.9465 59.7495 95.3703 59.4647 94.8346 58.9781C92.2536 56.6276 89.3554 54.639 86.3411 52.6479C85.353 51.9953 84.2659 50.9333 83.1205 50.482C82.9842 50.4282 82.8794 50.792 82.8405 50.8049C82.2355 50.9989 82.7206 50.418 82.5245 50.1953C81.7526 49.3176 80.6801 48.6908 79.6514 48.297C79.2267 48.1378 79.2766 48.9963 79.0719 48.4194C79.0572 48.3799 79.3438 48.0898 79.2542 47.9942C79.0512 47.7782 78.5402 47.584 78.3567 47.4512C78.2463 47.3704 78.1637 47.3118 78.0913 47.2634C77.9435 47.1634 77.8416 47.1106 77.6092 46.9876C77.1477 46.7395 76.6679 46.2896 76.1158 46.1345C75.9977 46.1027 75.9755 46.5334 75.7738 46.5166C75.5728 46.4993 75.1265 46.2659 75.0067 46.1128C74.8873 45.9591 75.0768 45.6972 75.0772 45.6188C75.0808 44.9565 74.2082 45.5143 74.1328 45.5078C72.7252 45.3338 71.7695 44.5008 70.5096 44.1243C69.5566 43.8413 68.4861 43.7235 67.5678 43.4839C66.4737 43.197 65.5721 42.7877 64.47 42.6183C64.3539 42.6002 64.4023 43.089 64.261 43.068C62.7611 42.8451 61.2734 42.56 59.7963 42.026C59.648 41.972 59.904 41.5904 59.7592 41.5119C59.1465 41.1866 58.297 40.6029 57.5649 40.8361C57.2403 40.9411 56.9483 41.2144 56.7164 41.7491C56.1164 41.6056 55.3883 41.4637 54.8682 41.0654C54.5332 40.8096 54.9002 40.3796 54.4531 40.5469C54.3528 40.5846 54.4599 40.9857 54.3108 41.0127C53.692 41.1265 53.0305 40.9877 52.4489 41.21C52.3323 41.2562 52.378 41.609 52.3471 41.6739C52.0987 42.1977 51.609 41.3776 51.4963 41.3267C50.704 40.9368 50.1618 41.2133 49.6006 41.378C49.4743 41.4167 49.7666 41.8203 49.6625 41.8709C49.658 41.8731 49.6535 41.8753 49.649 41.8775C49.2312 42.1078 49.0086 42.2263 48.5671 42.5349C48.4692 42.6074 48.1711 42.3138 48.1034 42.3442C47.7958 42.5206 48.4714 42.8894 48.2293 43.0717C48.1786 43.1152 47.8606 42.9737 47.821 42.9718C47.1906 42.9702 47.9598 43.3798 47.9697 43.4189C48.0858 44.0299 47.1629 44.3583 47.2658 45.0759C47.2801 45.1578 47.7218 44.9847 47.736 45.211C47.7938 46.0675 47.8745 46.9412 47.9182 47.9747C47.9005 48.0276 47.8333 47.9739 47.8118 48.0346C47.7909 48.0903 47.875 48.2355 48.048 48.3824C48.0733 48.4027 48.0989 48.4228 48.1248 48.4428C48.283 48.5603 48.0441 48.8224 48.0386 48.864C48.0432 49.542 48.4524 48.7702 48.5105 48.7519C49.025 48.6534 49.5583 49.3859 49.9171 48.3601C50.5004 48.4319 51.1407 48.3561 51.8192 48.2123C52.8375 48.0198 54.0113 46.9934 55.407 46.1524C55.7751 45.9466 56.149 45.7284 56.5452 45.4902C56.5737 45.4717 56.8628 45.7807 56.9196 45.7406C57.5976 45.2365 56.9823 44.9483 56.5277 44.1609C56.4046 43.9787 57.4219 44.0937 57.5044 44.0784C57.7938 44.0705 58.3042 44.4526 58.3684 44.4333C58.8928 44.2221 56.9712 43.4839 57.1039 43.1041C57.1116 43.092 57.4528 43.2676 57.5004 43.2444C57.6505 43.1693 57.5407 43.0134 57.6973 42.9383C58.0544 42.7733 59.0691 42.8623 58.574 42.3056C58.5061 42.2401 57.3487 42.1247 57.4472 41.764C57.4791 41.6523 57.5009 41.2425 57.5201 40.9684C57.5275 40.881 57.5368 40.806 57.5527 40.7589C57.6169 40.5635 58.0006 40.6691 58.0163 40.6558C58.4667 40.0558 58.688 40.2451 59.3779 39.8277C60.0529 39.3833 58.3364 39.7612 58.1241 39.6818C57.9138 39.6024 58.2243 39.1052 58.3313 38.9559C58.442 38.8126 58.7087 38.8878 58.7618 38.7703C59.0901 37.976 57.8471 38.7299 57.5229 38.6127C56.7599 38.3781 57.8542 37.5963 57.784 37.099C57.7662 36.9693 57.5344 37.1799 57.465 37.0889C57.1932 36.7316 57.4421 36.3091 56.8811 36.0307C56.7872 35.9795 55.9161 36.005 56.2881 35.5C56.3414 35.4264 56.677 35.361 56.6447 35.1579C56.5999 34.8578 56.3895 34.3721 56.132 34.1705C55.9416 34.0207 55.6328 34.528 55.6182 34.1988C55.6117 34.0529 56.0015 34.0797 55.9661 33.8181C55.9319 33.5561 55.5732 33.0538 55.4281 32.8696C55.2833 32.6842 55.0278 33.024 54.9946 33.0242C54.802 33.0216 54.3867 32.7825 54.3632 32.751C53.166 31.2159 52.4752 29.3763 50.9723 28.1022C50.855 28.0025 50.6139 28.3694 50.5928 28.3572C50.105 28.1014 51.2128 27.6204 51.2335 27.091C50.6433 27.7275 50.6079 27.4621 50.2821 27.2622C50.1247 27.1668 49.9517 27.4702 49.9158 27.4824C49.3682 27.65 49.7108 27.0602 49.7731 26.9314C50.0028 26.4589 49.4526 26.7351 49.6033 26.4174C49.7513 26.1007 50.2917 25.9525 50.0337 25.7032C49.744 25.8522 49.3578 26.6116 49.0748 26.5148C48.0142 26.1525 47.0857 24.3947 46.522 23.7912C46.4522 23.7156 46.3875 23.6476 46.3272 23.5855L46.4116 23.6538C45.9443 23.2802 45.7168 23.1626 45.4299 22.8486C44.8344 22.203 44.7592 22.8776 44.1679 22.8177C43.5788 22.7626 44.5941 21.6587 44.703 21.3501C44.8099 21.0408 44.5651 21.2723 44.5791 21.0738C44.5929 20.8752 44.884 20.8047 44.7293 20.628C44.5751 20.451 43.7568 20.6058 43.5133 20.8468C43.0024 21.3595 42.846 22.1306 42.4879 21.6062C42.4678 21.5759 42.762 21.2997 42.6745 21.2003C41.9612 20.4143 41.0504 19.8623 40.2915 19.1318C40.1865 19.0304 40.5086 18.715 40.4496 18.6515C39.8373 17.9925 39.7435 18.7764 38.9492 19.264C39.5609 18.3696 39.6499 17.6637 39.0776 17.3472C38.7339 17.1572 38.5722 17.6054 38.1915 17.7783C38.0754 17.8297 37.9867 17.4162 37.8382 17.5883C37.3543 18.1518 37.2024 18.9876 36.7671 18.3939C36.7486 18.3669 37.0145 18.0587 36.9368 17.9909C36.4271 17.5471 36.0111 18.1847 35.3469 17.9471C34.8237 17.7595 34.156 16.9061 33.6258 16.5602C34.1769 15.4796 33.5147 15.4622 32.9315 16.108C32.6048 15.9131 32.2385 15.7757 31.9364 15.5398C31.9083 15.5176 31.8809 15.4945 31.8543 15.4704C31.7499 15.3763 31.9821 15.0985 31.9833 15.0569C32.0054 14.4069 31.4905 15.0624 31.3966 15.0528C30.4018 14.9204 29.9552 14.0284 28.8704 14.187C28.8312 14.1927 28.4278 14.934 28.4677 14.2742C28.4711 14.229 28.9058 14.0085 28.5295 13.8008C28.1503 13.5916 27.6003 12.8399 26.8961 12.9466C26.7268 12.9723 26.1034 13.4389 26.0625 12.8329C26.0572 12.7508 26.1964 12.5487 26.201 12.403C26.2128 11.9375 25.769 12.671 25.872 11.9231C25.9727 11.1742 25.7945 10.498 25.0338 10.7017C25.0103 10.707 24.603 11.2635 24.4344 11.1757C24.1649 11.0347 23.8289 10.7291 23.5394 10.6038C23.4 10.5438 23.3168 10.9658 23.2897 10.962C22.2624 10.7581 21.7551 10.1222 20.8215 9.52916C20.653 9.42071 19.8896 9.70674 19.7222 9.13832C19.5341 8.51395 20.7671 6.80987 19.6723 6.86115C19.2327 6.88102 17.7183 9.06525 17.6168 7.54244C16.223 7.29387 15.3364 6.14812 13.8797 6.03141C13.8146 6.026 13.3428 6.61449 13.2133 6.54683C13.0214 6.44509 13.049 6.0854 12.9158 6.00251C12.3659 5.64942 11.7018 5.67643 11.1507 5.38557C10.94 5.27533 11.1574 4.9862 10.9055 4.8544C10.6522 4.72235 10.2967 5.07275 10.0351 4.71382C9.83875 4.44153 9.95158 3.45656 9.6459 3.20217C9.25758 4.05244 9.02464 3.92945 8.49471 3.96677C8.39264 3.97434 8.35104 4.31124 8.29602 4.33019C8.06945 4.41402 8.03179 4.10322 7.80773 4.20436C7.75348 4.22846 7.62375 4.52009 7.57217 4.55629C7.12908 4.87544 6.99429 4.03263 6.97307 3.88686C6.88776 3.33122 6.59197 3.65488 6.45462 3.39061C6.31748 3.12647 6.72847 3.05137 6.52611 2.83889C6.10579 2.39863 5.42751 2.1577 4.91221 1.91576C4.70636 1.82127 4.67678 2.27351 4.64335 2.26905C4.17131 2.18008 3.91564 1.57302 3.33815 2.2464C3.92232 0.106371 2.99444 2.32805 2.55513 1.65538C2.52084 1.60152 2.87644 0.624316 3.12396 0.566624C3.37137 0.50904 3.52294 0.929835 3.8756 0.825256C3.95904 0.801018 4.69805 0.0633862 4.77015 0.0306873C5.32949 -0.226646 4.75925 1.21653 4.74491 1.30325C4.60032 2.2435 5.44607 1.47045 5.58894 1.45403C6.2387 1.37669 6.58475 1.76638 7.11265 1.73915C7.45588 1.72244 7.8908 0.803993 8.09896 0.929099C8.79353 1.34545 8.4799 2.75499 9.66706 1.93351C9.92078 1.75853 10.219 0.677134 10.4004 1.70956C10.4114 1.77444 10.4863 2.67903 10.9181 2.31664C10.9723 2.27087 11.1012 1.97408 11.15 1.96576C11.4743 1.91584 11.5391 2.22561 11.8643 2.23326C12.1914 2.24171 12.5977 2.21875 12.8678 2.4569C13.0298 2.59949 13.0346 3.25977 13.0659 3.43465C13.1526 3.93682 13.7071 3.41877 13.6587 3.95969C13.6117 4.50407 12.9815 5.08577 13.2695 5.57714C13.6227 4.81414 14.0052 4.03972 14.3698 3.27652C15.278 3.70714 16.0799 4.35607 17.0189 4.72861C17.1352 4.77387 17.2005 4.30885 17.3299 4.34668C17.8821 4.51126 18.1993 5.00302 18.7933 5.12484C19.2496 5.21575 19.9018 4.98075 20.3857 5.06307C20.259 6.05885 21.0435 6.04917 21.4746 6.33687C21.6277 6.43811 21.5123 6.66796 21.5955 6.79666C21.911 7.27614 22.0494 6.40744 22.2246 6.33897C22.9725 6.04697 22.241 7.82729 22.8671 8.0548C22.8985 8.06671 23.7169 7.30922 23.797 7.27515C24.314 7.05028 23.7088 7.62672 23.8943 7.79282C24.2291 8.09462 24.4118 8.44504 24.9951 8.37818C25.1658 8.35743 25.7578 7.92307 25.8159 8.4919C25.8237 8.56648 25.6651 8.86679 25.6846 8.8974C26.0491 9.42534 26.5063 8.4633 26.9425 8.26503C27.3771 8.06612 27.5227 8.94038 27.5241 9.17398C27.5331 9.78062 27.2457 9.30451 27.2101 9.34746C26.7935 9.86126 27.1652 9.90932 27.3885 10.0708C26.9894 11.0366 27.3617 11.138 27.6229 10.235C27.65 10.1357 27.4179 10.1367 27.3885 10.0708C28.0271 9.23593 28.4729 9.29549 28.4878 10.3563C28.4971 10.8547 28.0946 11.2451 28.7702 11.346C29.0761 11.3922 29.2708 10.6899 29.5952 10.6241C30.3328 10.4728 30.756 11.4107 31.3657 11.5813C31.5866 11.643 31.5553 11.1931 31.712 11.223C32.1241 11.2994 32.3327 11.7253 32.7649 11.7642C32.8045 11.7674 32.9 11.3563 33.0178 11.4067C33.2818 11.5176 33.5216 11.6465 33.7498 11.7841C34.3234 12.1283 34.8303 12.5255 35.4811 12.8537C35.916 13.0724 36.8157 13.2696 37.2464 13.5408C38.0037 14.0118 38.6965 15.0487 39.4323 15.2768C39.9165 15.4297 40.0123 15.014 40.3329 14.8676C40.9598 14.5864 41.1325 15.7934 41.1428 15.9721C41.1409 15.9766 40.724 15.8581 40.8201 16.1525C40.7219 16.6016 41.1372 15.9712 41.1428 15.9721C41.1545 16.0891 41.8564 16.588 42.0394 16.6022C42.1422 16.6109 42.2891 16.2453 42.3391 16.2563C43.5131 16.5204 44.5725 17.0292 45.4828 17.8094C45.4965 17.8272 45.2392 18.1816 45.2741 18.2187C45.7499 18.7439 46.4028 18.5279 47.0558 18.576C47.7079 18.6243 48.031 18.9718 47.884 19.7802C48.1773 19.8991 48.4216 20.2538 48.5955 20.5801C48.6518 20.6255 48.8243 20.7535 48.8745 20.8055C48.9249 20.9402 48.9659 21.0697 48.999 21.1777C49.1154 21.5587 49.7291 20.9689 49.7631 20.9774C50.827 21.233 50.8975 21.9701 51.5551 22.7156C51.8672 23.0708 52.6197 23.6457 53.0467 23.9503C53.3854 24.1893 53.4132 24.5048 53.7652 24.6888C53.8127 24.7139 54.0511 24.4154 54.0724 24.4166C54.6925 24.4113 53.8809 24.9011 53.8206 25.0776C53.6003 25.72 53.4945 26.0737 54.065 26.2764C54.1951 26.3221 55.4249 25.6934 55.6392 25.816C55.9134 25.9743 55.4814 26.2072 55.7754 26.3648C55.8002 26.3787 56.0173 26.1789 56.1366 26.3346C56.6905 27.0521 57.1959 27.9231 57.8086 28.6578C57.8914 28.759 58.1561 28.3385 58.2824 28.4812C58.8775 29.1545 59.4567 29.977 59.7759 30.8473C59.8533 31.0625 59.5036 31.1282 59.4493 31.2219C59.1186 31.7849 60.0584 31.6695 60.1111 31.7233C61.3473 32.9367 61.3018 34.4428 62.3092 36.0368C62.3628 36.1064 63.5077 36.6006 62.8591 37.1976C62.8185 37.2444 62.1415 37.7899 62.7505 37.9699C62.7886 37.9831 63.1353 37.6525 63.1905 38.0652C63.2427 38.4652 63.6468 39.1105 63.2576 39.7642C63.1448 39.9583 62.4904 40.3819 62.9012 40.8598C62.9347 40.9001 62.9753 40.9412 63.0238 40.9835C63.0765 40.9889 64.4976 41.9947 63.4624 42.2511C63.2906 42.2907 62.2615 42.1259 62.7069 42.8431C62.7905 42.9859 63.0614 42.7873 63.1502 43.1526C63.2829 43.7263 62.8495 44.336 63.0821 45.1129C63.1287 45.2411 63.6225 45.9926 62.9542 46.1673C62.8508 46.1919 62.5747 45.9448 62.4549 46.1203C61.8883 46.9402 61.5529 47.9615 60.7387 48.6084C60.4529 48.8308 60.1207 48.3374 59.783 48.5027C59.4446 48.6714 58.8783 49.0478 58.7882 49.4762C58.6968 49.8903 59.5163 50.2774 59.2573 50.6929C59.2494 50.7096 59.239 50.7259 59.226 50.7417C58.0853 52.0333 56.2628 53.2429 53.1085 53.956C53.0836 53.9603 53.0585 53.9648 53.0332 53.9694C52.7433 54.0204 53.0588 54.2865 52.6144 54.3842C51.2811 54.7405 47.8858 55.2234 45.7582 53.7697C45.4392 53.5726 45.1326 53.3381 44.867 53.0753C43.9852 52.1524 44.3131 51.998 44.6123 52.0105C44.9215 51.9889 45.2116 52.0516 44.6327 51.3938C44.1015 50.8095 42.655 50.2279 42.5329 49.9289C42.3049 49.481 42.1786 49.0381 42.1166 48.6393C41.9838 48.1221 42.1946 47.4909 42.0279 46.8043C41.9855 46.6261 41.5714 46.8345 41.5402 46.6784C41.4301 46.1411 41.603 45.5435 41.5797 44.9875C41.5691 44.7374 41.2413 44.7726 41.2766 44.5334C41.3604 43.9616 41.5484 43.4376 41.9478 42.895C41.984 42.8487 42.3259 43.2655 42.4141 42.8338C42.5649 42.121 43.0773 41.3233 43.2091 40.3139C43.2512 40.0173 42.586 39.6397 43.3882 39.2997C43.5674 39.228 44.1808 39.8819 44.012 38.7933C43.9237 38.6445 44.2241 36.7322 45.3017 36.8259C45.577 36.8416 46.3525 37.2029 46.621 36.9305C46.6598 36.8893 46.2774 36.6375 46.5512 36.4491C46.8706 36.2378 47.1986 36.0713 47.5478 35.9291C48.1895 35.6643 48.7872 35.5159 49.3329 35.3271C49.5517 35.2525 49.1431 34.9039 49.4717 34.8077C50.3899 34.542 51.4616 34.5679 52.2548 34.676C52.5488 34.7167 52.3548 35.0657 52.3774 35.1025C52.7215 35.7023 52.9021 34.8816 53.0147 34.8333C53.7055 34.5467 54.2067 34.9498 54.8153 34.8801C54.9833 34.8623 54.8875 34.4649 54.9227 34.4319C55.2932 34.1123 54.9927 34.7984 55.2041 34.8894C55.7974 35.1478 56.4601 35.1762 57.0623 35.1925C57.2836 35.1981 57.0866 34.7193 57.2867 34.73C57.6511 34.7472 58.0137 34.78 58.3793 34.8311C59.1236 34.9355 59.8696 35.1128 60.5725 35.3881C60.7638 35.4639 60.5895 35.792 60.6195 35.8769C60.8237 36.4704 61.3495 35.7775 61.4575 35.7203C61.9449 35.4577 62.0699 35.7894 62.4672 35.7925C64.4107 35.7992 66.7704 36.4366 68.5692 36.984C70.9191 37.6956 72.666 38.5383 74.9229 39.2503C75.0667 39.2968 75.0808 38.8075 75.2078 38.8425C76.841 39.3157 78.3205 40.1366 79.9159 40.7707C80.0469 40.8238 80.0586 40.338 80.2769 40.4111C80.6516 40.5345 81.0711 40.7573 81.4054 41.0313C81.4675 41.0838 81.5261 41.1382 81.5801 41.194C81.7356 41.3538 81.3066 41.5537 81.4663 41.7075C81.8374 42.0661 82.2832 42.341 82.7506 42.5131C82.9556 42.5886 82.8811 42.0359 83.1333 42.1664C84.8263 43.0314 86.5111 43.8759 87.8908 45.3357C87.9864 45.4365 87.6325 46.2895 87.9606 46.2752C88.1053 46.0651 88.2533 45.8052 88.3966 45.5741C90.8656 46.8241 93.0709 48.5148 95.4204 50.0802C95.5182 50.1454 95.6096 49.627 95.8004 49.7513C96.9206 50.4808 98.0844 51.0921 98.9439 52.2775C99.0287 52.3942 98.486 53.0562 98.8805 53.1754C98.9512 53.1956 99.5198 53.4593 99.7491 53.3965C99.7824 53.386 99.9267 52.9988 100.089 53.1014C101.054 53.7211 101.98 54.531 102.745 55.4641C102.867 55.6143 102.443 55.8176 102.526 55.9265C103.116 56.6965 104.137 57.1483 104.587 58.1325C104.884 58.7991 104.176 59.1284 103.889 59.878C103.84 59.9717 104.107 60.3032 103.796 60.5907C103.002 61.2889 102.017 61.9136 101.19 62.6808C101.101 62.7638 101.144 62.8092 101.127 62.8503C101.106 62.8864 101.035 62.9261 100.797 63.0985C100.776 63.133 100.533 63.1433 100.341 63.229C100.215 63.2946 99.936 63.6231 99.7632 63.6942C99.5922 63.7677 99.7964 63.4608 99.55 63.5048C99.2981 63.5484 99.0092 63.9445 98.7606 63.7837ZM49.515 22.8907C49.4629 23.4045 50.5297 22.3554 50.0322 22.3761C50.0069 22.3784 49.5169 22.8649 49.515 22.8907ZM15.6187 5.38579C15.7283 6.15441 16.3733 5.37858 16.315 4.79646C16.2558 4.21454 15.5856 5.15286 15.6187 5.38579ZM11.5593 4.13129C11.7863 4.7985 12.7057 2.88603 12.0672 3.07437C12.0303 3.08467 11.5459 4.09246 11.5593 4.13129ZM102.67 58.9622C102.662 58.9811 102.835 59.1679 102.858 59.1626C103.287 58.9133 102.921 58.5205 102.67 58.9622ZM7.51046 2.93084C7.53218 3.25351 8.05723 3.1219 8.03103 2.72102C8.00998 2.39854 7.4836 2.52952 7.51046 2.93084ZM58.4512 36.8025C58.433 36.8159 58.4841 36.9906 58.599 36.9395C58.9703 36.7743 58.7635 36.5782 58.4512 36.8025ZM0.982785 0.0934594C1.91072 0.588945 1.7935 2.45078 0.822494 1.80797C0.647184 1.69181 1.45644 1.47649 1.27811 1.22555C0.952974 0.768264 0.216297 1.64578 0.00110602 0.907036C-0.0371929 0.772313 0.931525 0.0616963 0.985477 0.0919764C0.984582 0.0924716 0.983676 0.0929624 0.982785 0.0934594ZM48.4087 24.3174C48.3996 24.336 48.5676 24.5223 48.5855 24.5124C49.0122 24.2635 48.6721 23.886 48.4087 24.3174ZM56.4613 46.2047C56.4244 46.1888 56.022 46.5245 56.0319 46.5616C56.3325 47.3502 57.2384 46.59 56.4613 46.2047ZM33.6313 16.5269C33.1745 16.8335 32.8628 16.7428 32.9323 16.1091C33.1601 16.2561 33.3999 16.3795 33.6313 16.5269Z" fill="var(--stroke-0, #79D5FF)"/>
</svg>
