<svg preserveAspectRatio="none" width="100%" height="100%" overflow="visible" style="display: block;" viewBox="0 0 70.8967 74.5494" fill="none" xmlns="http://www.w3.org/2000/svg">
<path id="Vector 46" d="M69.7374 8.55815C68.9784 8.75599 67.9137 8.75239 67.0704 8.69117C66.8013 8.6732 66.8945 8.39031 66.7103 8.36615C66.3473 8.32018 66.0478 8.50305 65.6804 8.44409C65.557 8.4236 65.6276 7.98433 65.4989 7.97255C64.8125 7.90817 64.1949 8.1389 63.5124 8.19259C60.1115 8.46731 56.8031 9.24918 53.4472 10.2097C52.3381 10.527 50.8871 10.6562 49.8351 11.248C49.7125 11.3173 49.9244 11.6301 49.9109 11.668C49.6951 12.2526 49.5507 11.51 49.2593 11.5195C48.1198 11.553 46.9825 11.9923 46.0896 12.5385C45.7091 12.7726 46.41 13.264 45.8368 13.0677C45.7971 13.0548 45.7422 12.6513 45.6136 12.6625C45.3195 12.6896 44.8744 12.9663 44.6673 13.0266C44.2669 13.1411 44.2054 13.1737 43.8468 13.3349C43.4418 13.5139 42.9132 13.6102 42.4659 13.8345C42.3847 13.8753 42.3071 13.9208 42.2347 13.9723C42.1394 14.0418 42.4538 14.3337 42.3206 14.4761C42.1883 14.617 41.746 14.8082 41.5583 14.803C41.3705 14.7968 41.2808 14.487 41.2208 14.4373C40.716 14.0154 40.6272 15.0395 40.5838 15.0909C39.6408 16.0599 38.4578 16.2955 37.4872 17.0734C36.7552 17.663 36.1224 18.4538 35.4875 19.0702C34.7298 19.8042 33.9731 20.3457 33.3628 21.1933C33.2983 21.2826 33.7501 21.4688 33.6736 21.5771C32.8664 22.7222 32.0724 23.8591 31.096 24.959C30.9981 25.0688 30.7262 24.7051 30.6058 24.8048C29.8743 25.4102 28.4873 26.3817 29.8979 27.633C29.7848 27.816 29.6618 28.0229 29.5302 28.2197C29.3556 28.4334 29.1512 28.6977 28.8561 28.9219C28.5626 29.1546 28.1831 28.7722 28.2941 29.1898C28.3201 29.2836 28.7286 29.2469 28.7398 29.3773C28.7887 29.9176 28.6073 30.5196 28.789 31.1045C28.827 31.2229 29.1821 31.2031 29.2446 31.2378C29.7504 31.5196 28.8941 31.9705 28.833 32.0809C28.3733 32.8822 28.5785 33.4893 28.5985 34.2674C28.6032 34.4489 29.0694 34.2149 29.091 34.3886C29.1309 34.7279 29.1566 35.0761 29.1628 35.4292C29.1644 35.7889 29.1582 35.9394 29.0762 36.0541C29.052 36.1047 28.6985 36.3049 28.6767 36.3504C28.636 36.6029 29.1826 36.0656 29.1751 36.2646C29.1824 36.3108 28.9726 36.5872 28.9565 36.6224C28.7776 37.1037 29.1602 36.7365 29.2865 36.5836C29.3179 36.5565 29.3408 36.5389 29.3502 36.5402C30.0508 36.604 30.1189 37.5865 30.8246 37.6862C30.9061 37.6953 30.8685 37.2238 31.0848 37.2727C32.5225 37.5908 34.0416 37.8659 35.6048 38.1198C35.8479 38.1581 35.6995 38.4981 35.7166 38.5377C36.0179 39.1537 36.1158 38.2894 36.1877 38.2503C36.7708 37.9628 37.4848 38.5663 37.7068 37.4891C40.2537 37.315 42.4191 35.8768 44.8749 35.1083C44.9033 35.1272 44.9322 35.1473 44.9679 35.1614C44.9809 35.1621 45.2889 35.4475 45.3236 35.435C45.7601 35.1581 45.0415 34.884 44.2552 34.937C44.1552 34.9467 44.3418 34.8996 44.5404 34.7833C44.741 34.6727 44.9497 34.5038 44.9767 34.4785C45.1743 34.287 45.7815 34.1148 45.8123 34.0617C45.977 33.5172 44.2221 34.6202 44.1408 34.53C44.138 34.5221 44.4359 34.2852 44.4497 34.2447C44.477 34.1523 44.4057 34.1523 44.3762 34.1163C44.3512 34.0902 44.3329 34.0564 44.3305 34.0035C44.3186 33.6016 44.8376 32.7296 44.1234 32.9315C44.0339 32.9622 43.4206 33.9535 43.1214 33.6861C43.0031 33.5727 42.3777 33.2257 42.2281 33.0696C42.0816 32.9087 42.3773 32.6374 42.3726 32.6166C42.0776 31.9127 42.3622 31.8253 42.3833 31.0225C42.3806 30.2181 41.7673 31.8641 41.5826 31.9982C41.3989 32.1308 41.1523 31.5945 41.0932 31.423C41.0384 31.2514 41.2489 31.0725 41.1827 30.963C40.7211 30.2453 40.6314 31.694 40.3513 31.8942C39.7168 32.3841 39.7112 31.0376 39.2782 30.8064C39.1642 30.7452 39.1978 31.0562 39.0848 31.0594C38.6409 31.0711 38.4554 30.6226 37.9037 30.9117C37.8082 30.9576 37.321 31.6765 37.1397 31.0787C37.1128 30.9924 37.2554 30.6827 37.0774 30.5893C36.8105 30.4484 36.3087 30.3328 35.9985 30.4224C35.7704 30.4885 35.9924 31.0364 35.7249 30.8548C35.6047 30.7743 35.8532 30.4747 35.6231 30.3495C35.3957 30.2232 34.7922 30.2194 34.5614 30.2296C34.3322 30.2388 34.4557 30.6447 34.4367 30.6718C34.3254 30.8264 33.8987 31.0244 33.8611 31.0252C31.9672 31.1042 30.1027 30.619 28.249 31.1521C28.1046 31.1935 28.2731 31.5983 28.2518 31.6089C27.7828 31.8701 27.987 30.6835 27.564 30.3717C27.7664 31.2158 27.5293 31.0974 27.1918 31.2574C27.0297 31.3354 27.1854 31.6473 27.1762 31.684C27.0225 32.2318 26.7219 31.621 26.6491 31.4982C26.3831 31.0463 26.3172 31.6572 26.1364 31.3569C25.9544 31.0595 26.1197 30.5268 25.777 30.6056C25.7464 30.9292 26.1657 31.6683 25.9377 31.8513C25.0803 32.5358 23.1495 32.3675 22.3561 32.5264C21.5743 32.6773 21.3351 32.8101 20.8625 32.8352C19.9951 32.8889 20.4653 33.3739 20.0607 33.7904C19.6458 34.2127 19.4325 32.7276 19.2621 32.4483C19.092 32.1693 19.1153 32.5059 18.9728 32.3688C18.8302 32.2318 18.9535 31.9636 18.7256 31.9695C18.5039 31.9729 18.1005 32.7066 18.1424 33.0444C18.2177 33.7638 18.7158 34.3729 18.0891 34.3162C18.0527 34.3126 18.0257 33.9099 17.8927 33.9149C16.8521 33.9629 15.8685 34.3109 14.8374 34.4382C14.6961 34.4549 14.6489 34.0076 14.565 34.0128C14.4819 34.0177 14.4132 34.0269 14.3563 34.0404C14.3406 34.0456 14.3019 34.0712 14.2886 34.081C13.788 34.3943 14.3753 34.7709 14.5623 35.5839C13.9216 34.7122 13.287 34.3827 12.8027 34.8354C12.5153 35.1074 12.8944 35.3973 12.9549 35.8065C12.9739 35.9289 12.5541 35.8971 12.6801 36.0865C13.0965 36.7016 13.8487 37.0781 13.1971 37.3107C13.1674 37.3208 12.9322 36.9898 12.8504 37.0444C12.3202 37.4049 12.8478 37.953 12.5182 38.5121C12.2631 38.9454 11.3588 39.4131 10.9738 39.8785C9.96364 39.2048 9.87655 39.861 10.4788 40.4864C10.249 40.8021 10.0819 41.1922 9.80301 41.4652C9.70656 41.561 9.43793 41.3194 9.39676 41.3158C8.74918 41.2634 9.38893 41.7976 9.37968 41.885C9.23921 42.8361 8.3608 43.2705 8.56939 44.3178C8.57736 44.3549 9.33188 44.7321 8.67684 44.7053C8.63167 44.7037 8.38837 44.2894 8.20367 44.6582C8.01811 45.0276 7.30568 45.6091 7.4757 46.2846C7.51514 46.4497 8.03844 47.0143 7.44289 47.0999C7.36195 47.1117 7.14748 46.9929 7.00247 47.0005C6.53902 47.0291 7.31284 47.397 6.55963 47.3658C5.80945 47.3261 5.14891 47.5907 5.44502 48.3095C5.45305 48.3323 6.05451 48.6683 5.98897 48.8432C5.88188 49.1279 5.62775 49.4821 5.54308 49.7853C5.50292 49.9299 5.93212 49.956 5.93212 49.9831C5.87929 51.0003 5.33089 51.5838 4.90385 52.5794C4.82513 52.7599 5.23739 53.4552 4.71005 53.7068C4.13062 53.993 2.23289 53.0847 2.48039 54.15C2.58039 54.5756 5.00712 55.6568 3.53777 56.0242C3.54248 56.2523 3.52109 56.4736 3.48271 56.6913C3.48088 56.6977 3.47847 56.7173 3.47733 56.7239C3.40371 57.8287 2.89127 58.8564 3.20283 60.0198C3.21918 60.0832 3.93102 60.3294 3.91068 60.4705C3.87898 60.681 3.53111 60.7727 3.49806 60.9221C3.3511 61.5494 3.60453 62.1503 3.52295 62.7576C3.49277 62.9892 3.1461 62.8863 3.11044 63.163C3.07519 63.441 3.52782 63.6489 3.28408 64.013C3.09859 64.2865 2.13752 64.5221 2.0084 64.8956C2.94117 64.9571 2.90894 65.2136 3.13371 65.6859C3.1774 65.7762 3.50677 65.697 3.5442 65.7405C3.70375 65.9177 3.42717 66.063 3.60218 66.2328C3.64419 66.2739 3.96297 66.2902 4.01533 66.3246C4.47259 66.6173 3.73587 67.0349 3.60771 67.1069C3.12073 67.3835 3.5298 67.5383 3.33364 67.758C3.13755 67.9776 2.91797 67.6281 2.79377 67.8892C2.53689 68.4289 2.56106 69.1379 2.52568 69.6961C2.51355 69.9184 2.94495 69.7824 2.9531 69.8146C3.04404 70.2788 2.57446 70.7285 3.41358 71.0138C1.20932 71.2552 3.61636 71.2993 3.15458 71.9414C3.11728 71.992 2.07791 72.0223 1.93254 71.8177C1.78731 71.6133 2.12201 71.3224 1.89445 71.0377C1.84103 70.9706 0.882643 70.5603 0.825644 70.5069C0.380037 70.0892 1.93191 70.0881 2.01778 70.0702C2.94506 69.8635 1.91534 69.3666 1.84763 69.2429C1.53715 68.6775 1.77362 68.216 1.55599 67.744C1.41556 67.4346 0.4019 67.3636 0.443049 67.1258C0.579648 66.3369 2.00754 66.1256 0.815619 65.3214C0.561669 65.1483 -0.55534 65.2544 0.345116 64.7207C0.401869 64.6865 1.22096 64.3015 0.729661 64.0278C0.667695 63.9934 0.344539 63.9773 0.319567 63.9349C0.158561 63.6521 0.426048 63.4806 0.319584 63.1755C0.213281 62.868 0.0507004 62.4962 0.181368 62.1603C0.259566 61.9574 0.878162 61.7298 1.0318 61.6418C1.47413 61.3902 0.79875 61.0473 1.32454 60.9082C1.85288 60.771 2.61299 61.1624 2.97838 60.7353C2.14109 60.6587 1.28324 60.5586 0.44202 60.4704C0.544397 59.4638 0.896832 58.4947 0.959855 57.4762C0.96687 57.3502 0.504329 57.4346 0.500534 57.2964C0.49303 56.9827 0.599136 56.7004 0.689145 56.4147C0.700646 56.3488 0.724942 56.1508 0.743409 56.0865C0.846165 55.8508 0.936976 55.6115 0.939131 55.3345C0.939418 54.8756 0.589587 54.2658 0.582779 53.7744C1.58336 53.7232 1.43787 52.9377 1.64747 52.4684C1.72204 52.2972 1.96805 52.3725 2.0813 52.2674C2.50248 51.8727 1.62271 51.8821 1.5266 51.719C1.11754 51.0254 2.99324 51.4559 3.12118 50.8043C3.12774 50.7723 2.2557 50.0779 2.21177 49.999C1.91594 49.5128 2.57276 50.0334 2.71119 49.8224C2.96327 49.4428 3.28437 49.2147 3.14402 48.6376C3.10057 48.4727 2.59688 47.9322 3.15736 47.7976C3.2307 47.7801 3.54779 47.9019 3.57598 47.8783C4.05799 47.4506 3.05097 47.1068 2.80989 46.683C2.56882 46.2595 3.42927 46.0142 3.66317 45.9874C4.26853 45.9144 3.81785 46.257 3.86411 46.2893C4.41524 46.6571 4.42873 46.2739 4.57054 46.0336C5.56932 46.3405 5.63514 45.9679 4.71362 45.7842C4.61265 45.7648 4.63371 45.9973 4.57054 46.0336C3.68049 45.4745 3.71075 44.9976 4.77104 44.8969C5.26854 44.8505 5.68396 45.2238 5.74344 44.5388C5.77208 44.2289 5.05924 44.0762 4.97926 43.7477C4.79699 42.9982 5.73216 42.5156 5.90719 41.8853C5.97005 41.6577 5.51735 41.6987 5.54871 41.5365C5.63666 41.0951 6.06433 40.8902 6.1293 40.4281C6.13473 40.3862 5.72308 40.2863 5.78089 40.1615C6.2164 39.2094 6.89806 38.5387 7.50164 37.6148C7.78941 37.1685 8.15884 36.2444 8.54499 35.822C9.20481 35.0791 10.4401 34.5842 10.9085 33.9065C11.22 33.4604 10.8489 33.2519 10.8219 32.8858C10.7779 32.1669 12.037 32.3504 12.2093 32.4037C12.214 32.4052 11.9356 32.781 12.2584 32.7779C12.6545 33.0162 12.2061 32.4091 12.2093 32.4037C12.2657 32.4174 12.4719 32.2997 12.6803 32.1596C12.825 32.0531 13.2446 31.7752 13.415 31.7182C13.6422 31.6559 13.9005 31.5587 13.9712 31.4873C14.0427 31.4128 13.8499 31.0691 13.8882 31.0378C14.8196 30.2957 15.875 29.8022 17.034 29.5982C17.0557 29.5991 17.1683 30.0222 17.2176 30.0192C17.9213 29.9845 18.1463 29.3488 18.5879 28.8749C19.0158 28.4061 19.4876 28.3738 20.0105 29.0002C20.3869 28.7887 21.0533 28.9423 21.4393 29.0443C21.8261 29.1458 21.6485 28.3138 21.6735 28.2895C22.4527 27.5226 23.12 27.8553 24.1013 27.7045C24.5692 27.6333 25.4597 27.3155 25.9521 27.1259C26.3383 26.974 26.6157 27.1251 26.9652 26.9335C27.0127 26.9078 26.8958 26.544 26.9087 26.5269C27.2514 26.0072 27.2065 26.9548 27.3202 27.1028C27.7311 27.643 27.965 27.9275 28.4499 27.5684C28.5593 27.4862 28.7297 26.1153 28.9526 26.0071C29.2391 25.8695 29.1874 26.3576 29.485 26.2038C29.5106 26.1912 29.4688 25.8991 29.665 25.8888C30.5757 25.8373 31.5804 25.9204 32.5366 25.8446C32.6677 25.8354 32.4764 25.3765 32.6673 25.3558C33.5618 25.2592 34.5729 25.2686 35.4629 25.5213C35.6809 25.5851 35.5297 25.9068 35.5733 26.0057C35.8314 26.6038 36.2912 25.7763 36.3646 25.7654C38.0644 25.4791 39.2359 26.419 41.0318 26.5051C41.122 26.5034 42.1341 25.8399 42.2235 26.701C42.2344 26.7594 42.2856 27.6228 42.7493 27.2091C42.7796 27.1839 42.7203 26.7198 43.0578 26.8911C43.387 27.0593 44.0789 27.0471 44.3578 27.6862C44.4518 27.8902 44.42 28.7642 45.1493 28.4393C45.1827 28.402 46.6231 27.5704 46.332 28.5761C46.2822 28.7417 45.6645 29.5878 46.449 29.4732C46.6025 29.4536 46.5675 29.1392 46.9014 29.1977C47.3033 29.2702 47.5885 29.6584 48.0434 29.8449C48.2647 29.977 48.4927 30.1026 48.7412 30.216C48.9245 30.2752 50.0983 30.5528 49.9834 31.4765C49.9613 31.613 49.5603 31.6083 49.6911 31.9377C50.2197 33.3972 51.0922 35.6526 49.3105 38.0656C48.6608 38.7873 48.5236 38.0762 47.8015 38.5511C47.6866 38.6175 47.5593 38.6875 47.4171 38.7601C47.0985 38.8376 46.6892 39.0198 46.5911 39.3394C46.4746 39.717 47.2349 40.3167 46.8742 40.6196C45.2806 41.9337 43.2545 42.2423 41.3762 42.7491C41.0955 42.8232 41.4233 43.0642 41.0079 43.1937C39.5132 43.6995 36.6795 44.4552 35.2012 43.7578C34.0595 43.2188 35.4662 42.786 34.6244 42.5656C34.234 42.4579 33.7491 43.4905 33.6373 43.517C32.6045 43.7925 31.9491 43.2338 31.0296 43.1976C30.8367 43.1883 30.9345 43.6453 30.7679 43.6313C30.192 43.5851 29.6584 43.246 29.1305 43.1147C28.8923 43.0558 28.831 43.3793 28.6223 43.2817C28.1212 43.0489 27.7153 42.7399 27.36 42.2458C27.3299 42.2017 27.781 41.9591 27.4351 41.7867C27.2367 41.687 27.0373 41.5427 26.8304 41.3935C26.2921 41.0391 25.6643 40.5799 24.9066 40.0677C24.5795 39.8353 23.9147 40.2738 23.8229 39.1666C23.8236 38.9275 24.687 38.752 23.5847 38.1649C23.367 38.1079 21.9202 36.6537 22.5963 35.9769C22.6585 35.9083 22.7985 35.8047 22.9437 35.6874C23.1862 35.5728 23.4373 35.428 23.3603 35.3081C23.3408 35.282 22.9449 35.4066 22.8988 35.2445C22.7433 34.6722 22.7584 34.0463 22.6139 33.4131C22.5747 33.2433 22.1673 33.511 22.1222 33.2552C21.9974 32.5523 22.095 31.6155 22.2574 30.8425C22.3182 30.5571 22.6531 30.7715 22.6913 30.7517C23.3135 30.4532 22.5083 30.2081 22.469 30.0856C22.2385 29.3399 22.6896 28.8012 22.732 28.0463C22.7468 27.8351 22.3339 27.9027 22.308 27.8545C22.0701 27.3356 22.6849 27.8168 22.8232 27.5577C23.1405 26.9765 23.3689 26.2815 23.6657 25.5624C23.7072 25.4546 23.7467 25.3458 23.7853 25.2378C23.8565 25.0376 23.3443 25.0647 23.4139 24.8858C23.8132 23.833 24.3932 22.7605 25.1656 21.8777C25.3125 21.7108 25.5522 21.9999 25.6437 21.9993C26.2769 22.0075 25.8391 21.2408 25.8303 21.1127C25.7869 20.5313 26.1479 20.5322 26.3229 20.1399C27.1614 18.2194 28.9447 16.2247 30.4226 14.8752C32.3517 13.0998 34.12 12.0802 36.1023 10.6571C36.2295 10.5676 35.843 10.2649 35.951 10.182C37.1175 9.3118 38.4203 8.70784 39.6893 8.05898C39.9365 7.93191 40.1805 7.80037 40.4203 7.66121C40.5332 7.59675 40.1761 7.2777 40.3513 7.16072C40.7067 6.91931 41.2143 6.71077 41.667 6.65954C41.8869 6.63402 41.7864 7.09516 42.004 7.06281C42.5067 6.9904 43.0068 6.80178 43.4408 6.53496C43.6252 6.42055 43.1475 6.13717 43.4018 6.02054C45.1385 5.21571 46.8678 4.43099 48.8844 4.30106C49.0235 4.29198 49.4436 5.11307 49.6499 4.84996C49.5822 4.60394 49.478 4.32356 49.3931 4.0652C51.9641 2.96589 54.6984 2.41824 57.4123 1.73202C57.5285 1.70259 57.2007 1.28834 57.4266 1.22865C58.7112 0.889936 59.9494 0.446191 61.3903 0.623947C61.535 0.640764 61.6503 1.48905 62.0111 1.27972C62.0739 1.24166 62.6323 1.00902 62.7517 0.796528C62.767 0.764947 62.5802 0.395813 62.7688 0.346131C63.8659 0.0646918 65.0614 -0.0535884 66.2226 0.0226543C66.4063 0.0363612 66.2777 0.484076 66.4094 0.497511C67.3502 0.588594 68.3294 0.146296 69.2674 0.454982C69.8986 0.665066 69.7217 1.41571 70.0844 2.11526C70.1407 2.21323 70.4925 2.2107 70.5374 2.63004C70.6294 3.68372 70.5172 4.84735 70.6381 5.96938C70.6732 6.2097 71.0363 5.93545 70.8375 6.52909C70.8276 6.56813 70.5451 6.77583 70.4899 6.97886C70.449 7.11898 70.561 7.54055 70.4729 7.7221C70.3798 7.90396 70.2577 7.55276 70.1014 7.77194C69.9412 7.99466 70.0685 8.47115 69.7374 8.55815ZM23.1586 29.5177C23.5602 29.8376 23.2456 28.3748 22.9998 28.8055C22.9883 28.8281 23.1381 29.5022 23.1586 29.5177ZM2.02526 58.5992C2.71798 58.254 1.77862 57.8899 1.24474 58.128C0.711346 58.3706 1.81528 58.7051 2.02526 58.5992ZM2.20489 62.8068C2.75191 62.3691 0.639838 62.1645 1.03743 62.6974C1.05988 62.7281 2.17313 62.8323 2.20489 62.8068ZM68.6828 2.43965C68.6905 2.45864 68.9459 2.45248 68.9488 2.43262C69.0392 1.94626 68.5233 1.95924 68.6828 2.43965ZM2.522 66.9533C2.81477 66.8205 2.50253 66.3851 2.13815 66.551C1.84489 66.6856 2.15768 67.1195 2.522 66.9533ZM39.4286 30.0919C39.4286 30.1146 39.5977 30.1747 39.6236 30.0516C39.7063 29.6538 39.4312 29.7079 39.4286 30.0919ZM2.28909 73.9445C2.40348 72.9149 4.17553 72.3485 3.94 73.4654C3.8974 73.6677 3.39648 73.008 3.2299 73.2618C2.92637 73.7259 4.01512 74.0774 3.40986 74.5416C3.29912 74.6256 2.27867 74.0029 2.28671 73.9426C2.2875 73.9432 2.28829 73.9439 2.28909 73.9445ZM23.7694 31.2162C23.78 31.2338 24.0221 31.1931 24.0233 31.1727C24.0397 30.6795 23.5478 30.7622 23.7694 31.2162ZM44.9191 35.6966C44.8835 35.6724 44.408 35.9309 44.4106 35.9725C44.5679 36.7937 45.5856 36.2393 44.9191 35.6966ZM10.9416 39.8688C11.2032 40.344 11.1001 40.6177 10.48 40.4857C10.6391 40.2826 10.7776 40.0688 10.9416 39.8688Z" fill="var(--stroke-0, #04C0D1)"/>
</svg>
